<svg xmlns="http://www.w3.org/2000/svg" width="20" height="20" viewBox="0 0 20 20" fill="none">
  <path d="M20 20H0V0H20V20Z" stroke="#E5E7EB"/>
  <path d="M1.85938 11.7344L8.91797 18.3242C9.21094 18.5977 9.59766 18.75 10 18.75C10.4023 18.75 10.7891 18.5977 11.082 18.3242L18.1406 11.7344C19.3281 10.6289 20 9.07815 20 7.45706V7.23049C20 4.50003 18.0273 2.1719 15.3359 1.72268C13.5547 1.42581 11.7422 2.00784 10.4688 3.28128L10 3.75003L9.53125 3.28128C8.25781 2.00784 6.44531 1.42581 4.66406 1.72268C1.97266 2.1719 0 4.50003 0 7.23049V7.45706C0 9.07815 0.671875 10.6289 1.85938 11.7344Z" fill="#EC4899"/>
</svg>