<svg xmlns="http://www.w3.org/2000/svg" width="21" height="20" viewBox="0 0 21 20" fill="none">
  <g clip-path="url(#clip0_1_231)">
    <path d="M10.6562 0C13.3084 0 15.852 1.05357 17.7273 2.92893C19.6027 4.8043 20.6562 7.34784 20.6562 10C20.6562 12.6522 19.6027 15.1957 17.7273 17.0711C15.852 18.9464 13.3084 20 10.6562 20C8.00409 20 5.46055 18.9464 3.58518 17.0711C1.70982 15.1957 0.65625 12.6522 0.65625 10C0.65625 7.34784 1.70982 4.8043 3.58518 2.92893C5.46055 1.05357 8.00409 0 10.6562 0ZM9.71875 4.6875V10C9.71875 10.3125 9.875 10.6055 10.1367 10.7812L13.8867 13.2812C14.3164 13.5703 14.8984 13.4531 15.1875 13.0195C15.4766 12.5859 15.3594 12.0078 14.9258 11.7188L11.5938 9.5V4.6875C11.5938 4.16797 11.1758 3.75 10.6562 3.75C10.1367 3.75 9.71875 4.16797 9.71875 4.6875Z" fill="#A855F7"/>
  </g>
  <defs>
    <clipPath id="clip0_1_231">
      <path d="M0.65625 0H20.6562V20H0.65625V0Z" fill="white"/>
    </clipPath>
  </defs>
</svg>